# xmcd
#
# Track frame offsets: 
#        150
#        24942
#        47454
#        73389
#        97322
#        112511
#        135286
#        149098
#        182234
#        208531
#        239285
#
# Disc length: 3492 seconds
#
# Revision: 0
# Processed by: cddbd v1.5.2PL0 Copyright (c) Steve Scherf et al.
# Submitted via: ExactAudioCopy v0.95b3
#
DISCID=9a0da20b
DTITLE=Jim White - Where It Hits You
DYEAR=2011
DGENRE=Alt-Country
TTITLE0=Chase The Dark Away
TTITLE1=Sunday"s Refrain
TTITLE2=The Way Of Alone
TTITLE3=Stae Of Grace
TTITLE4=Infinite Mind
TTITLE5=What Rocks Will Never Know
TTITLE6=Here We Go
TTITLE7=My Brother's Keeper
TTITLE8=That Wintered Blue Sky
TTITLE9=Epilogue To A Marriage
TTITLE10=Why It's Cool
EXTD=
EXTT0=
EXTT1=
EXTT2=
EXTT3=
EXTT4=
EXTT5=
EXTT6=
EXTT7=
EXTT8=
EXTT9=
EXTT10=
PLAYORDER=
